<svg xmlns="http://www.w3.org/2000/svg" xmlns:xlink="http://www.w3.org/1999/xlink" viewBox="0 0 595.28 544" width="595.28" height="544">
<rect fill="#FFFFFF" width="595.83" height="544"/>
<!-- ISO wordmark top arc -->
<polygon fill="#00539F" points="168.875,192.184 168.875,149.567 57.644,149.567 57.644,192.184 83.163,192.184 83.163,283.344 57.644,283.344 57.644,325.961 168.875,325.961 168.875,283.344 143.356,283.344 143.356,192.184 "/>
<path fill="#00539F" d="M291.625,217.25c-6.875-2-42.25-12.125-48.375-14.125s-11.125-4.875-11.125-8.5s5.625-7.5,17-7.5 c35.875,0,53.109,22.125,53.109,22.125s1.942,2.587,2.593,3.515h34.612v-60.363h-37.157v10.982 c-2.838-1.96-23.79-15.634-56.282-15.634c-42.875,0-66.75,22.25-66.75,55.5s30.125,47,38.5,50.5s41.125,12.75,55.125,17.125 s19.125,7.5,19.125,9.75s-6.125,8.125-23.625,8.125c-30.483,0-46.181-17.976-48.936-21.457v-0.027 c-0.876-1.174-1.904-2.563-2.253-3.086c-0.404-0.605-1.341-1.948-1.991-2.876h-34.612v64.461h38.856v-13.461 c4.521,3.009,27.664,17.446,55.436,17.446c31,0,70.5-13.5,70.5-55.625S298.5,219.25,291.625,217.25z"/>
<path fill="#00539F" d="M444.035,147.157c-51.678,0-94.062,25.838-94.062,91.795s46.011,90.662,94.288,90.662 s93.835-24.479,93.835-89.981S492.54,147.157,444.035,147.157z M444.489,285.643c-17.68,0-29.013-4.08-29.013-46.917 c0-42.838,8.387-47.371,29.692-47.371c12.919,0,28.559,0.906,28.559,46.011S462.169,285.643,444.489,285.643z"/>
<!-- 27001 number -->
<text x="297.64" y="430" font-family="Arial, Helvetica, sans-serif" font-weight="bold" font-size="82" fill="#00539F" text-anchor="middle">27001</text>
<!-- Top/bottom decorative rings (simplified) -->
<path fill="none" stroke="#00539F" stroke-width="6" d="M297.64,39 a213,213 0 0,1 0,426 a213,213 0 0,1 0,-426"/>
</svg>
