<svg preserveAspectRatio="xMidYMid meet" data-bbox="12.4 12 588.9 154.9" viewBox="0 0 612 193.6" xmlns="http://www.w3.org/2000/svg" data-type="ugc" role="presentation" aria-hidden="true" aria-label="">
    <g>
        <path d="M45.2 26.1c-2.1 0-3.7 1.7-3.7 3.7v46.5H22.8c-2.1 0-3.7 1.7-3.7 3.7v12.5c-3.9 1.6-6.7 5.5-6.7 10.2s4.7 10.9 10.4 10.9 10.4-4.9 10.4-10.9-2.8-8.6-6.7-10.2v-8.4h18.7c2.1 0 3.7-1.7 3.7-3.7V29.8c0-2.1-1.7-3.7-3.7-3.7m-22.4 80.3c-1.9 0-3.5-1.6-3.5-3.7s1.6-3.7 3.5-3.7 3.5 1.6 3.5 3.7-1.6 3.7-3.5 3.7" fill="#56d9d3"></path>
        <path d="M65.4 113V16.1c0-2.3-1.8-4.1-4.1-4.1s-4.1 1.8-4.1 4.1v97c-3.4 1.6-5.7 5.1-5.7 9.3s4.4 10.2 9.8 10.2 9.8-4.6 9.8-10.2-2.3-7.7-5.7-9.3Zm-4.1 12.7c-1.8 0-3.3-1.5-3.3-3.4s1.5-3.4 3.3-3.4 3.3 1.5 3.3 3.4-1.5 3.4-3.3 3.4" fill="#55d4d9"></path>
        <path d="M103.4 107.1c-4 0-7.4 2.5-8.9 6.1-.6-.3-1.2-.5-1.8-.5H81.6v-95c0-2.3-1.9-4.2-4.2-4.2s-4.2 1.9-4.2 4.2V114c0 .4 0 .8.2 1.2-.2.4-.3.9-.3 1.4 0 2.2 1.7 3.9 3.9 3.9h15.7c.5 0 1 0 1.4-.3 1.2 4.2 4.9 7.3 9.3 7.3s9.8-4.6 9.8-10.2-4.4-10.2-9.8-10.2m0 13.7c-1.8 0-3.3-1.5-3.3-3.4s1.5-3.4 3.3-3.4 3.3 1.5 3.3 3.4-1.5 3.4-3.3 3.4" fill="#55d4d9"></path>
        <path d="M122.7 65.9c-3.7 0-6.9 2.2-8.5 5.3H97.3V31.6c0-2.1-1.7-3.7-3.7-3.7s-3.7 1.7-3.7 3.7v43.6c0 2.1 1.7 3.7 3.7 3.7h19.6c1.2 4.3 4.9 7.4 9.3 7.4s9.8-4.6 9.8-10.2-4.4-10.2-9.8-10.2zm0 13.6c-1.8 0-3.3-1.5-3.3-3.4s1.5-3.4 3.3-3.4 3.3 1.5 3.3 3.4-1.5 3.4-3.3 3.4" fill="#4cc9ec"></path>
        <path fill="#5fe6b8" d="M149 68.4v59.2h11.7v-21.9l26.3 21.9h17.6L172.1 98l32.3-29.6h-16.1l-27.6 23.2V68.4z"></path>
        <path d="M221.6 68.4v48.8s-.5 10.3 8.1 10.3h42.4s6 0 6.9-8.1v-51h-11.9V116h-33.8V68.5h-11.8.1Z" fill="#5be0c7"></path>
        <path fill="#56d6d6" d="M295.9 68.4v59.2h51.4V116h-39.7V68.4z"></path>
        <path d="M405.1 68.4h-11.6L364 127.6h13.2l5.8-11.5h32.9l5.7 11.5H435l-30-59.2zm-16.5 36L399.4 84l10.7 20.6h-21.5z" fill="#50cfe5"></path>
        <path d="M569.1 68.5h-11.6l-29.1 59.1h13.2l6-11.6h31.9l6.2 11.6h13.4zm-15.5 35.9 9.9-19.6 9.9 19.6h-19.9Z" fill="#50cfe5"></path>
        <path fill="#4bc8ee" d="M452.1 68.4v59.2h11.7V84.7l35.1 42.9h11.8V68.4h-11.5l-.3 41.9-32.3-41.9z"></path>
        <path d="M207.6 144.1H202v16.7h-4v-16.7h-5.6V141h15.1v3.1z" fill="#404040"></path>
        <path d="M216 161.1c-2.1 0-3.8-.7-5.1-2-1.3-1.4-1.9-3.1-1.9-5.2v-.5q0-3.3 1.8-5.4c1.8-2.1 2.8-2.1 4.8-2.1s3.5.6 4.6 1.8 1.6 2.8 1.6 4.8v2.2H213c0 1 .4 1.8 1 2.5.6.6 1.4.9 2.3.9s1.6 0 2.2-.3 1.2-.5 1.9-.8l1.1 2.4c-.6.5-1.4.9-2.3 1.2-1 .3-2 .5-3.2.5m-.4-12.2c-.7 0-1.3.3-1.7.8s-.7 1.3-.8 2.2h4.9v-.4c0-.8-.2-1.5-.6-2s-1-.8-1.8-.8z" fill="#404040"></path>
        <path d="M231.7 158.1c.7 0 1.3-.2 1.7-.6s.6-1 .6-1.6h3.6c0 1.6-.5 2.8-1.7 3.8s-2.6 1.5-4.3 1.5-3.9-.7-5.1-2.1-1.8-3.2-1.8-5.3v-.4c0-2.2.6-3.9 1.8-5.3q1.8-2.1 5.1-2.1c3.3 0 3.3.5 4.4 1.5s1.6 2.4 1.6 4.1H234c0-.8-.2-1.4-.6-1.9s-1-.8-1.7-.8c-1 0-1.8.4-2.2 1.2s-.6 1.9-.6 3.1v.4c0 1.3.2 2.4.6 3.2s1.2 1.2 2.2 1.2Z" fill="#404040"></path>
        <path d="M245.2 148c.5-.7 1-1.2 1.7-1.6s1.4-.6 2.2-.6q2.25 0 3.6 1.5c1.35 1.5 1.3 2.6 1.3 4.7v8.7h-4v-8.8c0-1.1-.2-2-.6-2.4-.4-.5-1-.7-1.8-.7s-1 0-1.4.3c-.4.2-.8.5-1 .8v10.8h-4v-21.2h4z" fill="#404040"></path>
        <path d="m262 146.2.2 2.1c.5-.8 1.1-1.3 1.8-1.8s1.5-.6 2.4-.6c1.5 0 2.6.5 3.5 1.4.8.9 1.2 2.4 1.2 4.4v9.2h-4v-9.2q0-1.5-.6-2.1c-.6-.6-1-.6-1.8-.6s-1 .1-1.4.3-.8.5-1 .9v10.7h-4v-14.7z" fill="#404040"></path>
        <path d="M274.9 153.4q0-3.3 1.8-5.4t5.1-2.1c3.3 0 3.9.7 5.1 2.1q1.8 2.1 1.8 5.4v.3q0 3.3-1.8 5.4t-5.1 2.1c-3.3 0-3.9-.7-5.1-2.1q-1.8-2.1-1.8-5.4zm3.9.2c0 1.3.2 2.4.7 3.2s1.2 1.2 2.3 1.2 1.8-.4 2.2-1.2.7-1.9.7-3.2v-.3c0-1.3-.2-2.4-.7-3.2s-1.2-1.2-2.3-1.2-1.8.4-2.2 1.2c-.5.8-.7 1.9-.7 3.2z" fill="#404040"></path>
        <path d="M296.7 160.8h-4v-21.2h4z" fill="#404040"></path>
        <path d="M300.8 153.4q0-3.3 1.8-5.4t5.1-2.1c3.3 0 3.9.7 5.1 2.1q1.8 2.1 1.8 5.4v.3q0 3.3-1.8 5.4t-5.1 2.1c-3.3 0-3.9-.7-5.1-2.1q-1.8-2.1-1.8-5.4zm3.9.2c0 1.3.2 2.4.7 3.2s1.2 1.2 2.3 1.2 1.8-.4 2.2-1.2.7-1.9.7-3.2v-.3c0-1.3-.2-2.4-.7-3.2s-1.2-1.2-2.3-1.2-1.8.4-2.2 1.2c-.5.8-.7 1.9-.7 3.2z" fill="#404040"></path>
        <path d="M317.9 153.6c0-2.3.5-4.2 1.5-5.6q1.5-2.1 4.2-2.1c2.7 0 1.5.2 2.2.6.6.4 1.2.9 1.6 1.6l.3-1.9h3.4v14.6c0 1.9-.6 3.4-1.9 4.4s-3 1.6-5.2 1.6-1.5-.1-2.4-.3c-.8-.2-1.6-.5-2.3-.8l.7-3c.6.3 1.2.5 1.9.7.6.1 1.3.2 2.1.2s1.9-.2 2.4-.7.8-1.2.8-2.1v-1.3c-.4.6-.9 1-1.5 1.3s-1.3.4-2 .4c-1.8 0-3.2-.7-4.2-2s-1.5-3.1-1.5-5.2v-.3h-.1Zm3.9.3c0 1.3.2 2.3.7 3.1s1.1 1.1 2.1 1.1 1.1-.1 1.5-.3.8-.5 1-1v-6.4c-.3-.4-.6-.8-1-1s-.9-.4-1.5-.4c-1 0-1.7.4-2.1 1.3s-.7 2-.7 3.4v.3Z" fill="#404040"></path>
        <path d="m340.8 154.7.2.8 2.8-9.3h4.3l-6 16.9c-.4 1-1 1.9-1.7 2.7-.7.7-1.8 1.1-3.2 1.1h-.9c-.3 0-.6-.1-1-.2l.5-2.9h.8c.7 0 1.2-.2 1.5-.5s.6-.7.8-1.2l.5-1.1-5.2-14.7h4.3l2.5 8.5h-.2Z" fill="#404040"></path>
        <path d="m366.5 155.6.2 1.1.2-1 4.3-14.5h4.2l-6.7 19.8h-4.1l-6.7-19.8h4.2l4.3 14.5h.1Z" fill="#404040"></path>
        <path d="M386.4 160.8c-.1-.3-.3-.7-.4-1.1s-.2-.8-.2-1.1c-.4.7-.9 1.3-1.6 1.8s-1.5.7-2.4.7q-2.25 0-3.6-1.2c-1.35-1.2-1.2-1.9-1.2-3.2s.6-2.6 1.7-3.3c1.1-.8 2.7-1.2 4.9-1.2h2.2V151c0-.7-.2-1.3-.6-1.6-.4-.4-.9-.6-1.6-.6s-1.1.2-1.5.5c-.3.3-.5.7-.5 1.3h-3.8c0-1.2.5-2.3 1.6-3.2s2.6-1.4 4.5-1.4 3.2.4 4.3 1.3 1.6 2.2 1.6 3.8v6.1c0 .7 0 1.3.2 1.9.1.6.3 1.2.5 1.8h-4.1Zm-3.6-2.6c.7 0 1.3-.2 1.9-.5s.9-.7 1.1-1.2v-2.1h-2.2c-.8 0-1.5.2-1.9.6s-.7.9-.7 1.5.2.9.5 1.2.8.4 1.3.4Z" fill="#404040"></path>
        <path d="M398.3 160.8h-4v-21.2h4z" fill="#404040"></path>
        <path d="M411.9 158.7c-.5.8-1 1.4-1.7 1.8q-1.05.6-2.4.6c-1.5 0-2.8-.5-3.6-1.5-.9-1-1.3-2.5-1.3-4.6v-8.9h3.9v8.9c0 1.1.2 1.8.5 2.3s.9.7 1.6.7 1.2-.1 1.6-.3c.5-.2.8-.5 1.1-.9v-10.7h4v14.7h-3.4l-.4-2.1Z" fill="#404040"></path>
        <path d="M426.5 161.1c-2.1 0-3.8-.7-5.1-2-1.3-1.4-1.9-3.1-1.9-5.2v-.5q0-3.3 1.8-5.4c1.8-2.1 2.8-2.1 4.8-2.1s3.5.6 4.6 1.8 1.6 2.8 1.6 4.8v2.2h-8.8c0 1 .4 1.8 1 2.5.6.6 1.4.9 2.3.9s1.6 0 2.2-.3 1.2-.5 1.9-.8l1.1 2.4c-.6.5-1.4.9-2.3 1.2-1 .3-2 .5-3.2.5m-.4-12.2c-.7 0-1.3.3-1.7.8s-.7 1.3-.8 2.2h4.9v-.4c0-.8-.2-1.5-.6-2s-1-.8-1.8-.8z" fill="#404040"></path>
        <path d="M459.6 154.1c0 2.2-.6 3.9-1.9 5.1s-3.2 1.9-5.6 1.9-4.3-.8-5.8-2.3-2.2-3.5-2.2-5.9V149c0-2.4.7-4.4 2.2-5.9s3.3-2.3 5.6-2.3 4.4.6 5.7 1.9c1.4 1.3 2 3 2 5.1h-3.9q0-1.95-.9-3c-.9-1.05-1.6-1-2.9-1s-2.1.5-2.8 1.4-1 2.2-1 3.7v3.9c0 1.5.4 2.7 1.1 3.7s1.7 1.4 3 1.4 2.2-.3 2.7-1q.9-1.05.9-3h3.8z" fill="#404040"></path>
        <path d="M471.3 149.6h-1.5c-.6 0-1.1 0-1.5.3-.4.2-.7.6-.9 1v9.9h-3.9v-14.7h3.7l.2 2.2c.3-.8.8-1.4 1.3-1.8s1.2-.6 1.9-.6h.6c.2 0 .3 0 .5.1l-.4 3.5Z" fill="#404040"></path>
        <path d="M481.2 161.1c-2.1 0-3.8-.7-5.1-2-1.3-1.4-1.9-3.1-1.9-5.2v-.5q0-3.3 1.8-5.4c1.8-2.1 2.8-2.1 4.8-2.1s3.5.6 4.6 1.8 1.6 2.8 1.6 4.8v2.2h-8.8c0 1 .4 1.8 1 2.5.6.6 1.4.9 2.3.9s1.6 0 2.2-.3 1.2-.5 1.9-.8l1.1 2.4c-.6.5-1.4.9-2.3 1.2-1 .3-2 .5-3.2.5m-.4-12.2c-.7 0-1.3.3-1.7.8s-.7 1.3-.8 2.2h4.9v-.4c0-.8-.2-1.5-.6-2s-1-.8-1.8-.8z" fill="#404040"></path>
        <path d="M499.4 160.8c-.1-.3-.3-.7-.4-1.1s-.2-.8-.2-1.1c-.4.7-.9 1.3-1.6 1.8s-1.5.7-2.4.7q-2.25 0-3.6-1.2c-1.35-1.2-1.2-1.9-1.2-3.2s.6-2.6 1.7-3.3c1.1-.8 2.7-1.2 4.9-1.2h2.2V151c0-.7-.2-1.3-.6-1.6-.4-.4-.9-.6-1.6-.6s-1.1.2-1.5.5c-.3.3-.5.7-.5 1.3h-3.8c0-1.2.5-2.3 1.6-3.2s2.6-1.4 4.5-1.4 3.2.4 4.3 1.3 1.6 2.2 1.6 3.8v6.1c0 .7 0 1.3.2 1.9.1.6.3 1.2.5 1.8h-4.1Zm-3.6-2.6c.7 0 1.3-.2 1.9-.5s.9-.7 1.1-1.2v-2.1h-2.2c-.8 0-1.5.2-1.9.6s-.7.9-.7 1.5.2.9.5 1.2.8.4 1.3.4Z" fill="#404040"></path>
        <path d="M511.8 142.6v3.6h2.5v2.8h-2.5v7.5c0 .6.1 1 .4 1.2.2.2.6.4 1 .4h.5s.3 0 .5-.1l.3 2.9-1.2.3c-.4 0-.8.1-1.2.1-1.4 0-2.4-.4-3.2-1.1-.7-.8-1.1-1.9-1.1-3.6v-7.5h-2.1v-2.8h2.1v-3.6h4Z" fill="#404040"></path>
        <path d="M517.6 153.4q0-3.3 1.8-5.4c1.8-2.1 2.9-2.1 5.1-2.1s3.9.7 5.1 2.1q1.8 2.1 1.8 5.4v.3q0 3.3-1.8 5.4c-1.8 2.1-2.9 2.1-5.1 2.1s-3.9-.7-5.1-2.1q-1.8-2.1-1.8-5.4zm3.9.2c0 1.3.2 2.4.7 3.2s1.2 1.2 2.3 1.2 1.8-.4 2.2-1.2.7-1.9.7-3.2v-.3c0-1.3-.2-2.4-.7-3.2s-1.2-1.2-2.3-1.2-1.8.4-2.2 1.2c-.5.8-.7 1.9-.7 3.2z" fill="#404040"></path>
        <path d="M543 149.6h-1.5c-.6 0-1.1 0-1.5.3-.4.2-.7.6-.9 1v9.9h-3.9v-14.7h3.7l.2 2.2c.3-.8.8-1.4 1.3-1.8s1.2-.6 1.9-.6h.6c.2 0 .3 0 .5.1l-.4 3.5Z" fill="#404040"></path>
        <path d="M554.3 156.8c0-.4-.2-.8-.6-1.1s-1.2-.6-2.3-.8c-1.7-.4-3-.9-3.9-1.6s-1.3-1.6-1.3-2.8.5-2.3 1.6-3.2 2.5-1.3 4.3-1.3 3.4.4 4.5 1.3 1.6 2 1.6 3.3h-3.8c0-.6-.2-1.1-.6-1.4-.4-.4-.9-.6-1.6-.6s-1.1.2-1.5.5-.5.7-.5 1.2.2.8.6 1.1 1.2.5 2.3.8c1.8.4 3.2.9 4 1.6.9.7 1.3 1.7 1.3 2.9s-.6 2.4-1.7 3.2-2.6 1.3-4.5 1.3-3.5-.5-4.6-1.5-1.7-2.1-1.6-3.4h3.6c0 .8.3 1.4.8 1.7.5.4 1.1.5 1.9.5s1.3-.1 1.7-.4q.6-.45.6-1.2h-.3Z" fill="#404040"></path>
        <path d="M152.8 155.5c-1.4 0-2.5-1.1-2.5-2.5s1.1-2.5 2.5-2.5h24.4c1.4 0 2.5 1.1 2.5 2.5s-1.1 2.5-2.5 2.5z" fill="#404040"></path>
        <path d="M574.8 155.5c-1.4 0-2.5-1.1-2.5-2.5s1.1-2.5 2.5-2.5h24c1.4 0 2.5 1.1 2.5 2.5s-1.1 2.5-2.5 2.5z" fill="#404040"></path>
    </g>
</svg>